HIERARCHY
ROOT hip
{
	OFFSET 0.00000 0.00000 0.00000
	CHANNELS 6 Xposition Yposition Zposition Zrotation Yrotation Xrotation 
	JOINT rightuplegdummy
	{
		OFFSET 0 0 0
		CHANNELS 3 Zrotation Yrotation Xrotation
		JOINT rightupleg
		{
			OFFSET -3.52197 -3.41223 0.04002
			CHANNELS 3 Zrotation Yrotation Xrotation
			JOINT rightleg
			{
				OFFSET 0.00006 -17.42390 1.60435
				CHANNELS 3 Zrotation Yrotation Xrotation
				JOINT rightfoot
				{
					OFFSET 0.06153 -16.50078 -1.63901
					CHANNELS 3 Zrotation Yrotation Xrotation
					JOINT righttoes
					{
						OFFSET 0.00298 -1.73825 3.34613
						CHANNELS 3 Zrotation Yrotation Xrotation
						End Site
						{
							OFFSET 0.00480 -0.05416 3.85043
						}
					}
				}
			}
		}
	}
	JOINT spinedummy
	{
		OFFSET 0 0 0
		CHANNELS 3 Zrotation Yrotation Xrotation
		JOINT spine
		{
			OFFSET 0.00000 4.68130 0.00000
			CHANNELS 3 Zrotation Yrotation Xrotation
			JOINT spine1
			{
				OFFSET -0.00000 10.10138 0.05002
				CHANNELS 3 Zrotation Yrotation Xrotation
				JOINT headdummy
				{
					OFFSET 0 0 0
					CHANNELS 3 Zrotation Yrotation Xrotation
					JOINT head
					{
						OFFSET -0.00000 3.43865 0.00438
						CHANNELS 3 Zrotation Yrotation Xrotation
						End Site
						{
							OFFSET -0.11417 5.02924 0.98962
						}
					}
				}
				JOINT leftshoulder1dummy
				{
					OFFSET 0 0 0
					CHANNELS 3 Zrotation Yrotation Xrotation
					JOINT leftshoulder1
					{
						OFFSET 3.53937 -0.14262 -0.08662
						CHANNELS 3 Zrotation Yrotation Xrotation
						JOINT leftarm
						{
							OFFSET 4.04833 -0.00133 0.12681
							CHANNELS 3 Zrotation Yrotation Xrotation
							JOINT leftforearm
							{
								OFFSET 10.33880 -0.01036 -0.55515
								CHANNELS 3 Zrotation Yrotation Xrotation
								JOINT lefthand
								{
									OFFSET 8.69677 0.07543 0.40060
									CHANNELS 3 Zrotation Yrotation Xrotation
									End Site
									{
										OFFSET 5.28377 -0.21905 0.59205
									}
								}
							}
						}
					}
				}
				JOINT rightshoulderdummy
				{
					OFFSET 0 0 0
					CHANNELS 3 Zrotation Yrotation Xrotation
					JOINT rightshoulder
					{
						OFFSET -3.53937 -0.14262 -0.08660
						CHANNELS 3 Zrotation Yrotation Xrotation
						JOINT rightarm
						{
							OFFSET -4.04833 -0.00133 0.12683
							CHANNELS 3 Zrotation Yrotation Xrotation
							JOINT rightforearm
							{
								OFFSET -10.37987 -0.01039 -0.55511
								CHANNELS 3 Zrotation Yrotation Xrotation
								JOINT righthand
								{
									OFFSET -8.67398 0.07538 0.40058
									CHANNELS 3 Zrotation Yrotation Xrotation
									End Site
									{
										OFFSET -5.24810 -0.21916 0.59204
									}
								}
							}
						}
					}
				}
			}
		}
	}
	JOINT leftuplegdummy
	{
		OFFSET 0 0 0
		CHANNELS 3 Zrotation Yrotation Xrotation
		JOINT leftupleg
		{
			OFFSET 3.52197 -3.41223 0.04002
			CHANNELS 3 Zrotation Yrotation Xrotation
			JOINT leftleg
			{
				OFFSET -0.00012 -17.42399 1.60337
				CHANNELS 3 Zrotation Yrotation Xrotation
				JOINT leftfoot
				{
					OFFSET -0.09972 -16.50070 -1.63802
					CHANNELS 3 Zrotation Yrotation Xrotation
					JOINT lefttoes
					{
						OFFSET -0.01575 -1.73823 3.34611
						CHANNELS 3 Zrotation Yrotation Xrotation
						End Site
						{
							OFFSET 0.03150 -0.01868 3.85031
						}
					}
				}
			}
		}
	}
}
MOTION
Frames: 18
Frame Time: 0.033333
-6.7150 36.1957 21.0143 165.0070 77.6981 162.8550 0.0000 -0.0000 0.0000 -24.8601 -21.6621 1.8000 1.8441 2.1897 38.1412 18.7815 1.6585 -21.7818 0.0000 0.0000 -0.0000 0.0000 -0.0000 0.0000 2.9367 2.3992 5.1985 -6.2084 4.3237 18.0224 -0.0000 -0.0000 -0.0000 -43.4290 51.0236 -41.8056 -0.0000 -0.0000 -0.0000 -23.9043 -3.3133 2.0543 -31.5256 -8.9256 26.5742 -1.9589 -22.4101 -11.5987 16.2095 6.5208 0.1278 -0.0000 -0.0000 -0.0000 29.6158 5.4285 3.1837 34.6098 13.9596 0.4730 178.7806 69.7162 179.1453 -11.0070 -8.1641 0.2238 0.0000 -0.0000 0.0000 11.6728 18.8713 -18.7577 -7.1432 -6.3644 44.7220 -12.9563 -0.0709 -12.6412 0.0000 -0.0000 -0.0000
-6.3290 36.5843 20.9139 167.4970 76.5231 164.6970 0.0000 -0.0000 0.0000 -26.1285 -23.6428 3.9724 3.7100 4.2083 37.8749 21.6544 1.3224 -18.8158 0.0000 0.0000 -0.0000 0.0000 -0.0000 0.0000 4.1315 2.9722 4.4975 -7.9807 5.5612 18.9443 -0.0000 -0.0000 -0.0000 -41.3071 49.4881 -40.8560 -0.0000 -0.0000 -0.0000 -24.9905 -3.2542 2.1064 -32.3082 -8.5299 16.9435 -2.4861 -21.4012 -8.2960 24.2904 8.3170 0.5753 -0.0000 -0.0000 -0.0000 31.1270 5.6419 3.3957 39.4011 10.9583 1.7509 179.5803 73.6961 -173.9502 -17.2172 -13.7263 1.1792 0.0000 -0.0000 0.0000 11.8801 18.6878 -15.7412 -6.8580 -6.9556 40.8357 -11.8089 -0.0718 -12.6992 0.0000 -0.0000 -0.0000
-5.7289 37.9720 20.8347 171.4370 74.8798 167.8750 0.0000 -0.0000 0.0000 -24.5711 -21.6429 6.8888 0.7541 1.1682 33.5745 23.5791 -0.7300 -8.1453 0.0000 0.0000 -0.0000 0.0000 -0.0000 0.0000 3.9497 3.2855 3.6529 -6.5610 5.3606 17.8599 -0.0000 -0.0000 -0.0000 -38.5095 50.5897 -35.6281 -0.0000 -0.0000 -0.0000 -25.1320 -2.9590 2.0233 -37.5386 -4.0319 14.8489 -1.3745 -24.1473 -13.0716 31.9752 7.6574 0.6166 -0.0000 -0.0000 -0.0000 32.0451 5.7507 3.5206 43.8023 3.6251 5.4905 179.5483 73.7331 -174.0044 -19.2183 -14.4800 1.4422 0.0000 -0.0000 0.0000 12.1959 14.8810 -10.8349 -4.0428 -5.6932 32.2172 -12.8335 0.5740 -6.6280 0.0000 -0.0000 -0.0000
-5.1895 39.5904 20.9298 173.5010 73.7860 170.2090 0.0000 -0.0000 0.0000 -21.1402 -17.8427 7.1434 -2.1278 -2.7015 29.5181 16.0108 -2.0239 3.0602 0.0000 0.0000 -0.0000 0.0000 -0.0000 0.0000 2.8800 3.3268 2.0516 -5.0950 4.8436 16.4996 -0.0000 -0.0000 -0.0000 -35.9111 52.5159 -30.8703 -0.0000 -0.0000 -0.0000 -24.7596 -2.6158 1.8943 -41.2482 1.1515 14.6271 -1.3051 -26.9909 -13.8906 24.6684 6.7860 0.2727 -0.0000 -0.0000 -0.0000 33.0598 5.8982 3.6722 44.5047 -3.4223 8.6482 178.9424 71.3212 -179.0527 -9.4991 -11.9332 0.4532 0.0000 -0.0000 0.0000 12.1776 11.5546 -7.4428 -1.6852 -3.6479 23.5673 -13.9865 1.9774 4.9294 0.0000 -0.0000 -0.0000
-4.8030 40.7889 21.0510 173.0630 73.7728 170.4830 0.0000 -0.0000 0.0000 -19.4841 -16.2462 6.1405 -0.2159 0.0273 26.7612 10.3700 -1.6074 6.3977 0.0000 0.0000 -0.0000 0.0000 -0.0000 0.0000 2.9286 3.2709 0.5084 -5.9993 5.0361 15.6539 -0.0000 -0.0000 -0.0000 -33.7874 53.8170 -28.6441 -0.0000 -0.0000 -0.0000 -24.4188 -2.5771 1.8625 -43.0677 5.9585 12.8109 -1.0230 -30.1312 -7.6503 11.5574 5.3355 -0.0268 -0.0000 -0.0000 -0.0000 33.1536 5.9791 3.7127 44.3605 -7.7023 11.4037 179.0357 68.1520 -179.3483 1.1788 -8.8613 -0.1102 0.0000 -0.0000 0.0000 11.4410 11.0380 -5.6591 0.3279 0.3944 17.2794 -11.5305 2.6406 15.2909 0.0000 -0.0000 -0.0000
-4.5671 41.3899 21.1546 173.7050 73.5318 171.0380 0.0000 -0.0000 0.0000 -19.2771 -17.1576 6.3197 2.6530 5.1462 23.6443 14.3412 -2.1686 5.9161 0.0000 0.0000 -0.0000 0.0000 -0.0000 0.0000 4.0101 3.2435 -0.1518 -6.7757 5.3484 16.1255 -0.0000 -0.0000 -0.0000 -33.6453 53.5073 -28.8245 -0.0000 -0.0000 -0.0000 -24.0351 -2.8429 1.9205 -44.7937 8.1798 12.4301 -0.6856 -33.2829 -0.9843 7.1936 2.9029 -0.1795 -0.0000 -0.0000 -0.0000 31.3975 5.7830 3.4737 44.3753 -8.8829 13.2801 179.3164 64.1836 -177.6149 2.5071 -5.8299 -0.0729 0.0000 -0.0000 0.0000 11.0180 10.6355 -4.7836 0.8332 3.0369 14.6616 -9.2858 2.3208 17.8498 0.0000 -0.0000 -0.0000
-4.4589 41.4359 21.3245 175.6270 73.1895 172.2760 0.0000 -0.0000 0.0000 -18.7167 -17.9168 6.6881 2.4213 5.4667 19.9355 17.4062 -2.9887 8.2072 0.0000 0.0000 -0.0000 0.0000 -0.0000 0.0000 5.0044 3.3184 0.4478 -6.5024 5.5415 16.7359 -0.0000 -0.0000 -0.0000 -34.4314 52.6671 -29.6256 -0.0000 -0.0000 -0.0000 -23.6242 -3.0212 1.9490 -45.6793 7.2975 14.6582 -0.4696 -35.4200 2.9656 8.3745 2.5024 -0.2248 -0.0000 -0.0000 -0.0000 29.9105 5.5277 3.2450 42.1236 -7.3064 12.2502 179.1174 61.0717 179.1680 -0.4938 -5.4874 -0.0461 0.0000 -0.0000 0.0000 11.1807 11.3169 -4.2791 -0.9116 -1.8293 14.8125 -11.2767 2.5938 15.4553 0.0000 -0.0000 -0.0000
-4.4454 40.8204 21.5477 176.2750 73.2853 172.4780 0.0000 -0.0000 0.0000 -17.9756 -17.3972 5.2221 0.9661 2.4525 19.9919 15.5592 -2.5733 7.5379 0.0000 0.0000 -0.0000 0.0000 -0.0000 0.0000 5.2993 3.3375 2.2012 -6.3367 5.6323 15.5086 -0.0000 -0.0000 -0.0000 -33.7242 52.5739 -29.2589 -0.0000 -0.0000 -0.0000 -23.4091 -3.0285 1.9378 -45.6215 6.2627 15.0075 -0.2519 -37.4589 6.7181 8.4618 3.3439 -0.1722 -0.0000 -0.0000 -0.0000 29.2144 5.4436 3.1536 38.9351 -4.0182 8.5540 178.7311 61.6951 175.0216 -1.7807 -5.6772 -0.0434 0.0000 -0.0000 0.0000 11.0826 12.6374 -4.6570 -2.5508 -6.5972 17.5349 -12.8587 2.4654 10.8663 0.0000 -0.0000 -0.0000
-4.5358 39.5304 21.8685 176.0270 72.6139 172.0480 0.0000 -0.0000 0.0000 -17.8097 -16.9491 2.7890 0.5919 1.2928 25.7723 16.1780 -1.3500 -1.7931 0.0000 0.0000 -0.0000 0.0000 -0.0000 0.0000 4.5681 3.0085 4.0624 -6.2211 5.1421 14.2769 -0.0000 -0.0000 -0.0000 -33.6041 51.8360 -30.1888 -0.0000 -0.0000 -0.0000 -23.4669 -3.0735 1.9548 -44.7764 4.2705 14.4401 -0.2264 -38.9437 7.1410 9.0720 3.3641 -0.1818 -0.0000 -0.0000 -0.0000 28.3160 5.3208 3.0329 35.8100 1.0445 3.6142 178.2452 65.4916 171.8794 -3.5240 -5.2734 -0.0483 0.0000 -0.0000 0.0000 10.8353 12.2419 -7.9847 -2.4717 -4.8280 25.0203 -11.0636 1.3376 2.5129 0.0000 -0.0000 -0.0000
-4.7191 37.9826 22.2462 177.7940 71.1170 173.4760 0.0000 -0.0000 0.0000 -17.7650 -18.2748 1.2042 1.8849 2.6443 32.7907 17.1960 0.2066 -13.1226 0.0000 0.0000 -0.0000 0.0000 -0.0000 0.0000 4.5198 2.4339 5.0962 -6.1306 4.4294 15.3742 -0.0000 -0.0000 -0.0000 -35.8631 49.5002 -34.1311 -0.0000 -0.0000 -0.0000 -24.2574 -3.2107 2.0461 -41.8796 -1.5909 16.3420 -0.4031 -37.4184 4.2768 11.2980 3.3550 -0.2216 -0.0000 -0.0000 -0.0000 28.6131 5.2424 3.0313 30.7065 7.8927 -2.2313 177.4518 71.3818 169.6651 -8.5376 -7.3389 0.0942 0.0000 -0.0000 0.0000 11.6519 11.6290 -13.2073 -2.4910 -3.3321 34.8660 -9.7562 0.4764 -6.1225 0.0000 -0.0000 -0.0000
-4.7301 37.2150 22.4837 -179.8610 70.6888 175.4440 0.0000 -0.0000 0.0000 -17.5390 -20.0344 1.2956 3.2121 4.0201 35.0276 15.8178 0.8890 -18.2300 0.0000 0.0000 -0.0000 0.0000 -0.0000 0.0000 5.7360 2.3652 4.7301 -6.4580 4.5421 17.3556 -0.0000 -0.0000 -0.0000 -36.6973 47.8380 -36.0302 -0.0000 -0.0000 -0.0000 -25.1246 -3.2769 2.1222 -39.7590 -7.6915 19.1705 -0.3823 -33.4145 4.4271 15.6091 4.9365 -0.0896 -0.0000 -0.0000 -0.0000 30.3010 5.4647 3.2572 28.0142 12.5326 -5.8148 177.5432 78.0406 176.6625 -14.5557 -12.3115 0.8092 0.0000 -0.0000 0.0000 13.0560 11.6560 -14.8033 -3.3416 -3.8875 38.4830 -10.1405 0.1446 -10.3815 0.0000 -0.0000 -0.0000
-4.3603 37.8521 22.5046 -179.6820 71.6560 175.6550 0.0000 -0.0000 0.0000 -17.3409 -20.0284 3.2152 3.3532 4.8269 30.9560 16.2010 0.5033 -15.2790 0.0000 0.0000 -0.0000 0.0000 -0.0000 0.0000 6.1274 3.1031 2.8057 -6.2780 5.2110 18.1145 -0.0000 -0.0000 -0.0000 -34.2553 48.8641 -32.4883 -0.0000 -0.0000 -0.0000 -24.7992 -3.1227 2.0534 -42.0404 -8.1121 20.4340 -0.2821 -31.1412 5.9987 21.9614 7.5206 0.3723 -0.0000 -0.0000 -0.0000 31.2831 5.6599 3.4167 32.8523 10.8109 -4.6491 179.9400 80.9507 -170.9324 -18.0053 -16.1259 1.6005 0.0000 -0.0000 0.0000 13.3695 11.5136 -11.1288 -2.3424 -3.4231 32.9284 -11.2472 0.3073 -8.7498 0.0000 -0.0000 -0.0000
-3.8265 39.3863 22.3830 179.6990 72.7888 175.4150 0.0000 -0.0000 0.0000 -16.7514 -18.4117 5.7947 2.1849 4.2921 23.6109 17.8405 -1.0074 -5.0272 0.0000 0.0000 -0.0000 0.0000 -0.0000 0.0000 5.4436 3.7227 0.4248 -4.7357 5.3561 17.2988 -0.0000 -0.0000 -0.0000 -30.8642 51.6571 -26.5059 -0.0000 -0.0000 -0.0000 -24.4138 -2.8906 1.9580 -44.9223 -2.9363 19.8546 -0.3664 -32.9199 4.6470 23.7068 7.6849 0.4439 -0.0000 -0.0000 -0.0000 31.9847 5.7417 3.5118 39.0438 3.8853 -0.9054 179.9965 79.1523 -170.5327 -16.4078 -15.0783 1.3041 0.0000 -0.0000 0.0000 12.9737 11.2459 -6.4455 -0.8015 -2.0542 24.0076 -12.2636 1.3253 1.0256 0.0000 -0.0000 -0.0000
-3.4211 40.8154 22.2903 178.8680 73.9736 175.2170 0.0000 -0.0000 0.0000 -16.1392 -16.9454 6.9135 1.1573 2.6328 17.5090 17.4248 -2.7023 6.3849 0.0000 0.0000 -0.0000 0.0000 -0.0000 0.0000 4.7071 3.8522 -1.1462 -3.5712 5.1978 15.5912 -0.0000 -0.0000 -0.0000 -27.8813 54.3992 -21.8274 -0.0000 -0.0000 -0.0000 -24.7611 -2.7981 1.9507 -45.1715 3.8609 17.4429 -0.4632 -36.9991 3.2551 17.0801 5.0545 -0.0688 -0.0000 -0.0000 -0.0000 33.0611 5.8792 3.6648 41.4579 -3.8811 3.4257 178.9776 75.4847 -177.1409 -8.6369 -11.8933 0.4010 0.0000 -0.0000 0.0000 12.5965 12.2691 -4.1437 -0.1242 -0.9511 17.7461 -11.7912 2.4423 12.8324 0.0000 -0.0000 -0.0000
-3.2160 41.5700 22.2848 176.8400 75.3212 173.8200 0.0000 -0.0000 0.0000 -16.2985 -16.8110 6.5178 1.0868 1.5003 15.2614 15.9538 -3.1284 11.0067 0.0000 0.0000 -0.0000 0.0000 -0.0000 0.0000 4.4815 3.9873 -1.9423 -4.2195 5.4638 14.5415 -0.0000 -0.0000 -0.0000 -26.0509 55.6957 -20.0740 -0.0000 -0.0000 -0.0000 -23.9753 -2.8043 1.9053 -45.6212 8.4862 14.4639 -0.4569 -40.9439 3.6626 10.2988 2.6240 -0.2608 -0.0000 -0.0000 -0.0000 32.4017 5.8603 3.5956 43.2383 -9.5898 7.4464 178.9994 71.5267 -178.4590 -0.3143 -8.4516 -0.0587 0.0000 -0.0000 0.0000 12.1180 12.1437 -3.0888 0.3299 1.6174 14.3121 -9.8976 2.2212 14.8916 0.0000 -0.0000 -0.0000
-3.1945 41.7167 22.3118 176.1250 76.1234 173.0340 0.0000 -0.0000 0.0000 -16.4034 -17.9285 5.9655 0.8192 1.6546 16.3341 15.0032 -2.9585 11.1644 0.0000 0.0000 -0.0000 0.0000 -0.0000 0.0000 4.9819 3.9996 -1.7718 -5.1247 5.6871 14.8057 -0.0000 -0.0000 -0.0000 -27.3287 55.8031 -21.7057 -0.0000 -0.0000 -0.0000 -22.1780 -2.7429 1.7805 -46.3731 9.2712 13.8234 -0.4192 -44.2522 4.5156 9.7408 2.2184 -0.2800 -0.0000 -0.0000 -0.0000 30.3794 5.6543 3.3327 44.4754 -11.8228 9.8708 179.4304 67.8669 -175.9520 2.4073 -6.2637 -0.0752 0.0000 -0.0000 0.0000 12.0940 10.8814 -2.5447 0.3666 2.9980 12.7563 -8.2305 1.6509 12.3279 0.0000 -0.0000 -0.0000
-3.2871 41.2744 22.3633 176.8330 76.2819 173.0700 0.0000 -0.0000 0.0000 -16.4242 -18.4081 5.7084 0.4634 1.5111 19.0665 15.5562 -2.8218 9.3875 0.0000 0.0000 -0.0000 0.0000 -0.0000 0.0000 5.2389 3.7253 -0.3813 -4.9228 5.3848 14.9200 -0.0000 -0.0000 -0.0000 -29.4913 55.6984 -23.5612 -0.0000 -0.0000 -0.0000 -21.3612 -2.6195 1.6982 -44.9805 7.4900 15.3678 -0.3354 -46.4777 5.8589 12.7561 3.1155 -0.2683 -0.0000 -0.0000 -0.0000 29.5581 5.5892 3.2355 42.6690 -11.3755 9.8429 179.5938 65.6388 -174.9072 0.2479 -6.1145 -0.0557 0.0000 -0.0000 0.0000 12.5895 11.3920 -3.2465 0.0673 1.0618 13.8925 -8.7333 1.8534 13.5747 0.0000 -0.0000 -0.0000
-3.4037 40.1121 22.4518 176.2600 76.2097 172.2810 0.0000 -0.0000 0.0000 -17.2127 -19.6336 5.2766 1.0894 2.3858 22.8943 17.3694 -1.8757 1.0320 0.0000 0.0000 -0.0000 0.0000 -0.0000 0.0000 4.6658 3.5265 1.0737 -4.5202 5.0166 13.9697 -0.0000 -0.0000 -0.0000 -28.9068 55.4447 -23.1594 -0.0000 -0.0000 -0.0000 -21.3263 -2.5923 1.6887 -42.1482 4.6621 16.8609 -0.3181 -46.9485 6.1527 14.1269 3.9406 -0.2005 -0.0000 -0.0000 -0.0000 29.3715 5.6235 3.2311 39.6179 -9.8199 7.7649 179.2326 65.8708 -178.5701 -2.7519 -5.7329 -0.0410 0.0000 -0.0000 0.0000 12.8972 12.7103 -5.3723 0.0067 -0.6204 18.3970 -11.3432 2.0708 10.0427 0.0000 -0.0000 -0.0000
